<?xml version="1.0" encoding="UTF-8"?>
<svg width="145px" height="145px" viewBox="0 0 145 145" version="1.1" xmlns="http://www.w3.org/2000/svg" xmlns:xlink="http://www.w3.org/1999/xlink">
    <title>编组</title>
    <g id="页面-1" stroke="none" stroke-width="1" fill="none" fill-rule="evenodd">
        <g id="编组" transform="translate(5.000000, 5.000000)">
            <path d="M17.4705882,96.1875 C42.469595,96.1875 62.7352941,82.965909 62.7352941,66.65625 C62.7352941,50.346591 42.469595,37.125 17.4705882,37.125" id="路径" stroke="#FFFFFF" stroke-width="8"></path>
            <path d="M65.9117647,96.1875 C90.9107715,96.1875 111.176471,82.965909 111.176471,66.65625 C111.176471,50.346591 90.9107715,37.125 65.9117647,37.125" id="路径" stroke="#FFFFFF" stroke-width="8" transform="translate(88.544118, 66.656250) scale(-1, 1) translate(-88.544118, -66.656250) "></path>
            <polygon id="三角形" fill="#FAFAFA" transform="translate(113.161765, 37.968750) rotate(90.000000) translate(-113.161765, -37.968750) " points="113.161765 33.9981618 119.48989 41.9393382 106.83364 41.9393382"></polygon>
            <polygon id="三角形" fill="#FAFAFA" transform="translate(113.161765, 97.031250) rotate(90.000000) translate(-113.161765, -97.031250) " points="113.161765 93.0606618 119.48989 101.001838 106.83364 101.001838"></polygon>
            <path d="M67.5,135 C104.779221,135 135,104.779221 135,67.5 C135,30.2207794 104.779221,0 67.5,0 C40.7758542,0 17.679003,15.530294 6.74228268,38.0580454 C2.42267215,46.9556957 0,56.9449251 0,67.5 C0,78.0172774 2.40535216,87.9727547 6.69595042,96.8463258 C17.6136759,119.425744 40.7380568,135 67.5,135 Z" id="椭圆形" stroke="#FFFFFF" stroke-width="10"></path>
        </g>
    </g>
</svg>